HIERARCHY
ROOT Hips
{
	OFFSET -0.001795 -0.223333 0.028219
	CHANNELS 6 Xposition Yposition Zposition Zrotation Yrotation Xrotation 
	JOINT LeftUpLeg
	{
		OFFSET 0.069520 -0.091406 -0.006815
		CHANNELS 3 Zrotation Yrotation Xrotation
		JOINT LeftLeg
		{
			OFFSET 0.034277 -0.375199 -0.004496
			CHANNELS 3 Zrotation Yrotation Xrotation
			JOINT LeftFoot
			{
				OFFSET -0.013596 -0.397961 -0.043693
				CHANNELS 3 Zrotation Yrotation Xrotation
				JOINT LeftToe
				{
					OFFSET 0.026358 -0.055791 0.119288
					CHANNELS 3 Zrotation Yrotation Xrotation
					End Site
					{
						OFFSET 0.000000 0.000000 0.000000
					}
				}
			}
		}
	}
	JOINT RightUpLeg
	{
		OFFSET -0.067670 -0.090522 -0.004320
		CHANNELS 3 Zrotation Yrotation Xrotation
		JOINT RightLeg
		{
			OFFSET -0.038290 -0.382569 -0.008850
			CHANNELS 3 Zrotation Yrotation Xrotation
			JOINT RightFoot
			{
				OFFSET 0.015774 -0.398415 -0.042312
				CHANNELS 3 Zrotation Yrotation Xrotation
				JOINT RightToe
				{
					OFFSET -0.025372 -0.048144 0.123348
					CHANNELS 3 Zrotation Yrotation Xrotation
					End Site
					{
						OFFSET 0.000000 0.000000 0.000000
					}
				}
			}
		}
	}
	JOINT Spine
	{
		OFFSET -0.002533 0.108963 -0.026696
		CHANNELS 3 Zrotation Yrotation Xrotation
		JOINT Spine1
		{
			OFFSET 0.005487 0.135180 0.001092
			CHANNELS 3 Zrotation Yrotation Xrotation
			JOINT Spine2
			{
				OFFSET 0.001457 0.052922 0.025425
				CHANNELS 3 Zrotation Yrotation Xrotation
				JOINT Neck
				{
					OFFSET -0.002778 0.213870 -0.042857
					CHANNELS 3 Zrotation Yrotation Xrotation
					JOINT Head
					{
						OFFSET 0.005152 0.064970 0.051349
						CHANNELS 3 Zrotation Yrotation Xrotation
						End Site
						{
							OFFSET 0.000000 0.000000 0.000000
						}
					}
				}
				JOINT LeftShoulder
				{
					OFFSET 0.078845 0.121749 -0.034090
					CHANNELS 3 Zrotation Yrotation Xrotation
					JOINT LeftArm
					{
						OFFSET 0.090977 0.030469 -0.008868
						CHANNELS 3 Zrotation Yrotation Xrotation
						JOINT LeftForeArm
						{
							OFFSET 0.259612 -0.012772 -0.027456
							CHANNELS 3 Zrotation Yrotation Xrotation
							JOINT LeftHand
							{
								OFFSET 0.249234 0.008986 -0.001171
								CHANNELS 3 Zrotation Yrotation Xrotation
								End Site
								{
									OFFSET 0.000000 0.000000 0.000000
								}
							}
						}
					}
				}
				JOINT RightShoulder
				{
					OFFSET -0.081759 0.118833 -0.038615
					CHANNELS 3 Zrotation Yrotation Xrotation
					JOINT RightArm
					{
						OFFSET -0.096012 0.032551 -0.009143
						CHANNELS 3 Zrotation Yrotation Xrotation
						JOINT RightForeArm
						{
							OFFSET -0.253742 -0.013329 -0.021401
							CHANNELS 3 Zrotation Yrotation Xrotation
							JOINT RightHand
							{
								OFFSET -0.255298 0.007772 -0.005559
								CHANNELS 3 Zrotation Yrotation Xrotation
								End Site
								{
									OFFSET 0.000000 0.000000 0.000000
								}
							}
						}
					}
				}
			}
		}
	}
}
MOTION
Frames: 5
Frame Time: 0.050000
0.018581 0.217005 -0.113017 -42.792368 -16.786218 29.561383 18.877831 23.014840 -76.969513 -11.513195 46.873606 148.321103 4.872318 17.783451 52.294618 0.000000 0.000000 0.000000 -32.244426 0.509400 -66.086124 14.748224 -21.600571 126.626858 1.803723 -0.930657 12.450611 0.000000 0.000000 0.000000 -13.343233 16.461835 63.868673 -0.667662 0.381241 -15.363320 13.920655 26.370464 2.070991 10.707651 -3.036089 -18.143902 0.000000 0.000000 0.000000 41.903818 -17.160221 8.784161 16.987935 -36.612044 -9.771321 53.235957 -12.555885 -10.188860 0.000000 0.000000 0.000000 -22.390299 25.964724 5.272067 17.902017 37.127238 4.784836 -48.022798 19.223456 -3.264828 0.000000 0.000000 0.000000 
0.014996 0.215902 -0.114876 -43.604656 -18.213708 28.754016 18.267203 23.678342 -77.307891 -12.041459 48.635509 148.295090 4.212370 17.330493 51.025248 0.000000 0.000000 0.000000 -32.105316 1.153586 -66.541620 15.335482 -22.511797 127.127317 1.431545 -0.907817 10.599552 0.000000 0.000000 0.000000 -13.750420 17.566876 64.509190 -0.226496 0.235061 -15.664464 14.291728 28.004854 2.490147 11.661105 -3.570961 -17.687916 0.000000 0.000000 0.000000 41.079306 -16.440226 9.151198 16.504708 -37.240700 -10.123649 51.485433 -11.600195 -9.730711 0.000000 0.000000 0.000000 -23.177105 26.619705 5.076306 16.807247 38.864989 5.097501 -49.165998 19.274781 -3.304610 0.000000 0.000000 0.000000 
0.011545 0.215176 -0.116672 -43.927019 -19.071219 28.312980 17.835607 23.718984 -76.967480 -12.536365 49.481223 147.586990 2.327143 15.741677 48.799586 0.000000 0.000000 0.000000 -32.843098 1.154902 -66.645458 15.878909 -23.480234 126.728108 0.942231 -1.339270 9.185780 0.000000 0.000000 0.000000 -13.788696 18.008348 64.771755 -0.332774 0.252745 -15.524279 14.326309 29.189515 2.535361 12.391805 -3.906885 -17.676241 0.000000 0.000000 0.000000 40.831765 -15.441134 9.493249 15.991230 -37.724411 -10.353614 50.508693 -11.496445 -9.790240 0.000000 0.000000 0.000000 -23.450013 26.946555 5.017553 15.673231 40.366893 5.263307 -50.902578 18.635209 -3.106023 0.000000 0.000000 0.000000 
0.008210 0.214487 -0.118465 -44.243925 -19.707478 27.639290 17.661081 23.481325 -75.990278 -13.023418 50.384931 146.844465 0.854410 14.400493 46.907701 0.000000 0.000000 0.000000 -33.346647 1.130478 -66.138302 16.268298 -23.472410 125.949032 1.141597 -0.629905 8.290792 0.000000 0.000000 0.000000 -13.770384 18.280657 65.058312 -0.227758 0.219790 -16.023604 14.850293 30.214642 3.664804 12.790143 -3.905579 -18.250385 0.000000 0.000000 0.000000 40.803685 -14.585748 9.685520 15.834830 -38.179835 -10.659420 48.202952 -10.584139 -9.105429 0.000000 0.000000 0.000000 -23.745749 26.452193 4.626950 15.654968 42.774956 6.051739 -52.101818 18.913272 -3.302834 0.000000 0.000000 0.000000 
0.005309 0.213029 -0.120499 -43.510770 -20.108240 26.540026 17.528915 23.223442 -75.856748 -13.691497 52.573519 146.611331 -0.490896 12.927411 44.831508 0.000000 0.000000 0.000000 -34.055631 0.753179 -65.949394 15.814363 -22.633157 126.339815 1.531621 0.186737 8.133130 0.000000 0.000000 0.000000 -13.265953 18.180138 66.071647 0.314038 0.062484 -16.286630 14.706875 30.507766 3.773035 12.864546 -4.020645 -17.864565 0.000000 0.000000 0.000000 40.367980 -14.347347 9.795793 16.457400 -38.339386 -11.032631 44.174352 -9.241334 -7.610764 0.000000 0.000000 0.000000 -23.667222 26.893851 4.688830 15.617679 44.130957 6.462883 -53.483288 18.835068 -3.460323 0.000000 0.000000 0.000000 
